<svg width="680" height="320" viewBox="0 0 680 320" role="img" xmlns="http://www.w3.org/2000/svg">
  <title>Glenmore Kelowna</title>
  <desc>Stylized cover banner for Glenmore, Kelowna</desc>
  <defs><clipPath id="cGL"><rect width="680" height="320" rx="12"/></clipPath></defs>
  <g clip-path="url(#cGL)">
    <rect width="680" height="320" fill="#7DC0DC"/>
    <rect width="680" height="210" fill="#62AED0"/>
    <rect width="680" height="140" fill="#4A98BA"/>
    <rect width="680" height="85" fill="#3682A4"/>
    <ellipse cx="120" cy="60" rx="55" ry="22" fill="#FFFFFF" opacity="0.55"/>
    <ellipse cx="160" cy="55" rx="40" ry="18" fill="#FFFFFF" opacity="0.5"/>
    <ellipse cx="85" cy="65" rx="35" ry="16" fill="#FFFFFF" opacity="0.45"/>
    <ellipse cx="480" cy="50" rx="60" ry="20" fill="#FFFFFF" opacity="0.5"/>
    <ellipse cx="525" cy="44" rx="42" ry="17" fill="#FFFFFF" opacity="0.45"/>
    <ellipse cx="445" cy="56" rx="32" ry="14" fill="#FFFFFF" opacity="0.4"/>
    <polygon points="0,185 80,120 165,155 250,100 335,140 415,95 500,128 590,88 680,118 680,200 0,200" fill="#90B8C8"/>
    <polygon points="0,225 80,180 180,205 280,168 390,198 490,160 590,185 680,162 680,240 0,240" fill="#70A06A"/>
    <rect y="232" width="680" height="88" fill="#88BC78"/>
    <ellipse cx="340" cy="260" rx="380" ry="55" fill="#78B068"/>
    <rect x="0" y="262" width="680" height="16" fill="#9C9C9C"/>
    <rect x="55" y="268" width="38" height="2" fill="#EFEFEF" opacity="0.7"/>
    <rect x="155" y="268" width="38" height="2" fill="#EFEFEF" opacity="0.7"/>
    <rect x="255" y="268" width="38" height="2" fill="#EFEFEF" opacity="0.7"/>
    <rect x="355" y="268" width="38" height="2" fill="#EFEFEF" opacity="0.7"/>
    <rect x="455" y="268" width="38" height="2" fill="#EFEFEF" opacity="0.7"/>
    <rect x="555" y="268" width="38" height="2" fill="#EFEFEF" opacity="0.7"/>
    <rect x="38" y="222" width="72" height="45" fill="#D8C8A8"/>
    <polygon points="26,222 74,192 122,222" fill="#6A4830"/>
    <rect x="63" y="240" width="20" height="27" fill="#4A3018"/>
    <rect x="40" y="228" width="16" height="12" fill="#B8D8E8"/>
    <rect x="96" y="228" width="15" height="12" fill="#B8D8E8"/>
    <rect x="38" y="238" width="72" height="5" fill="#C0B090"/>
    <rect x="44" y="238" width="4" height="29" fill="#C0B090"/>
    <rect x="102" y="238" width="4" height="29" fill="#C0B090"/>
    <rect x="165" y="218" width="78" height="49" fill="#E2D0B0"/>
    <polygon points="153,218 204,183 255,218" fill="#7A4828"/>
    <rect x="193" y="237" width="22" height="30" fill="#50321A"/>
    <rect x="168" y="224" width="18" height="14" fill="#B8D8E8"/>
    <rect x="230" y="224" width="16" height="13" fill="#B8D8E8"/>
    <rect x="290" y="214" width="100" height="53" fill="#DED0B0"/>
    <polygon points="276,214 340,176 404,214" fill="#72401E"/>
    <rect x="328" y="232" width="26" height="35" fill="#4A2C10"/>
    <rect x="294" y="220" width="22" height="17" fill="#B8D8E8"/>
    <rect x="370" y="220" width="20" height="16" fill="#B8D8E8"/>
    <rect x="390" y="228" width="36" height="39" fill="#D0C0A0"/>
    <rect x="392" y="230" width="32" height="22" fill="#BEB098"/>
    <rect x="448" y="220" width="74" height="47" fill="#E8D8B8"/>
    <polygon points="436,220 485,184 534,220" fill="#6E3E1C"/>
    <rect x="474" y="239" width="22" height="28" fill="#4E2C12"/>
    <rect x="451" y="226" width="17" height="13" fill="#B8D8E8"/>
    <rect x="508" y="226" width="16" height="12" fill="#B8D8E8"/>
    <rect x="570" y="222" width="72" height="45" fill="#E0D0B4"/>
    <polygon points="558,222 606,186 654,222" fill="#7A4420"/>
    <rect x="595" y="240" width="21" height="27" fill="#523018"/>
    <rect x="573" y="228" width="17" height="13" fill="#B8D8E8"/>
    <rect x="630" y="228" width="16" height="12" fill="#B8D8E8"/>
    <rect x="137" y="244" width="5" height="24" fill="#7A5C14"/>
    <ellipse cx="139" cy="236" rx="16" ry="19" fill="#3C6C28"/>
    <ellipse cx="134" cy="240" rx="10" ry="12" fill="#346025"/>
    <rect x="258" y="242" width="5" height="26" fill="#8B6914"/>
    <ellipse cx="260" cy="234" rx="15" ry="18" fill="#3A6828"/>
    <rect x="430" y="242" width="5" height="26" fill="#7A5C14"/>
    <ellipse cx="432" cy="234" rx="16" ry="19" fill="#3C6C28"/>
    <ellipse cx="427" cy="238" rx="10" ry="12" fill="#346025"/>
    <rect x="548" y="244" width="5" height="24" fill="#8B6914"/>
    <ellipse cx="550" cy="236" rx="15" ry="17" fill="#3A6828"/>
    <rect x="0" y="0" width="680" height="320" fill="#082C18" opacity="0.40" rx="12"/>
    <text x="52" y="128" font-family="sans-serif" font-size="48" font-weight="700" fill="#FFFFFF" letter-spacing="1">GLENMORE</text>
    <text x="53" y="163" font-family="sans-serif" font-size="20" font-weight="400" fill="#D0ECD8" letter-spacing="3">KELOWNA, BRITISH COLUMBIA</text>
    <rect x="52" y="173" width="80" height="3" fill="#78D890" rx="2"/>
  </g>
</svg>
